# xmcd
#
# Track frame offsets: 
#        150
#        17612
#        34858
#        50043
#        69510
#        82698
#        96185
#        115505
#        131053
#        144656
#        161835
#        175748
#
# Disc length: 2603 seconds
#
# Revision: 1
# Processed by: cddbd v1.5.2PL0 Copyright (c) Steve Scherf et al.
# Submitted via: ExactAudioCopy v1.0b3
#
DISCID=9a0a290c
DTITLE=Derek Miller - The Dirty Looks
DYEAR=2006
DGENRE=Blues, Blues Rock, Roots Rock
TTITLE0=Devil Come Down Sunday
TTITLE1=Stormy Eyes
TTITLE2=Girls!
TTITLE3=Throw The Hammer Down
TTITLE4=Ooh La La
TTITLE5=Never Gonna Get Enough
TTITLE6=Ocean (All Night Long)
TTITLE7=10 000 RPM
TTITLE8=Malibu
TTITLE9=Shot O' Cake
TTITLE10=Wishing Well
TTITLE11=Mystery Train (The Lonely Hearts Club)
EXTD=Produced by Derek Miller and Brandon Friesen. AR 13062 © 2006 Arbor
EXTD=Records Ltd. ® Fallen Sparrow Music. Made in Canada.
EXTT0=
EXTT1=
EXTT2=
EXTT3=
EXTT4=
EXTT5=
EXTT6=
EXTT7=
EXTT8=
EXTT9=
EXTT10=
EXTT11=
PLAYORDER=
